<svg xmlns="http://www.w3.org/2000/svg" class="editor-view__logo-preview" data-v-04588dbe="" data-v-0a059b40="" width="273.2421875" height="62.42265319824219" viewBox="0 0 273.2421875 62.42265319824219"><svg id="mark" viewBox="0 0 32 32" width="54" height="54" x="0" y="4.211326599121094" data-v-04588dbe="" style="fill: rgb(0, 0, 0);"><rect x="0" y="0" width="100%" height="100%" fill="none" data-v-04588dbe=""></rect><g data-v-04588dbe=""><g xmlns="http://www.w3.org/2000/svg"><g><polygon points="9.382,8.675 23.325,8.675 23.325,22.618 32,31.293 32,0 0.707,0   "></polygon><polygon points="22.618,23.325 8.675,23.325 8.675,9.382 0,0.707 0,32 31.293,32   "></polygon></g></g></g></svg><svg id="name" viewBox="0 0 194.0849609375 34.94921875" width="194.0849609375" height="34.94921875" x="70" y="4" data-v-04588dbe="" style="fill: rgb(0, 0, 0);"><rect x="0" y="0" width="100%" height="100%" fill="none" data-v-04588dbe=""></rect><g data-v-04588dbe=""><path xmlns="http://www.w3.org/2000/svg" d="M26.64 1.80L26.64 7.25L16.62 7.25L16.62 34.50L9.88 34.50L9.88 7.25L0 7.25L0 1.80L26.64 1.80ZM24.37 22.42L24.37 22.12Q24.37 18.51 25.76 15.68Q27.16 12.85 29.77 11.30Q32.39 9.75 35.85 9.75L35.85 9.75Q40.77 9.75 43.88 12.76Q46.99 15.77 47.35 20.93L47.35 20.93L47.39 22.60Q47.39 28.19 44.27 31.57Q41.15 34.95 35.89 34.95Q30.64 34.95 27.50 31.58Q24.37 28.21 24.37 22.42L24.37 22.42ZM30.86 22.60L30.86 22.60Q30.86 26.05 32.16 27.89Q33.47 29.72 35.89 29.72L35.89 29.72Q38.25 29.72 39.58 27.91Q40.90 26.10 40.90 22.12L40.90 22.12Q40.90 18.73 39.58 16.87Q38.25 15.00 35.85 15.00L35.85 15.00Q33.47 15.00 32.16 16.86Q30.86 18.71 30.86 22.60ZM50.38 22.17L50.38 22.17Q50.38 16.49 52.93 13.12Q55.48 9.75 59.90 9.75L59.90 9.75Q63.45 9.75 65.77 12.40L65.77 12.40L65.77 0L72.28 0L72.28 34.50L66.42 34.50L66.10 31.92Q63.68 34.95 59.86 34.95L59.86 34.95Q55.57 34.95 52.97 31.57Q50.38 28.19 50.38 22.17ZM56.87 22.64L56.87 22.64Q56.87 26.05 58.06 27.87Q59.25 29.69 61.52 29.69L61.52 29.69Q64.53 29.69 65.77 27.16L65.77 27.16L65.77 17.56Q64.55 15.03 61.57 15.03L61.57 15.03Q56.87 15.03 56.87 22.64ZM76.30 22.42L76.30 22.12Q76.30 18.51 77.69 15.68Q79.08 12.85 81.70 11.30Q84.32 9.75 87.78 9.75L87.78 9.75Q92.70 9.75 95.81 12.76Q98.92 15.77 99.28 20.93L99.28 20.93L99.32 22.60Q99.32 28.19 96.20 31.57Q93.08 34.95 87.82 34.95Q82.57 34.95 79.43 31.58Q76.30 28.21 76.30 22.42L76.30 22.42ZM82.79 22.60L82.79 22.60Q82.79 26.05 84.09 27.89Q85.40 29.72 87.82 29.72L87.82 29.72Q90.18 29.72 91.51 27.91Q92.83 26.10 92.83 22.12L92.83 22.12Q92.83 18.73 91.51 16.87Q90.18 15.00 87.78 15.00L87.78 15.00Q85.40 15.00 84.09 16.86Q82.79 18.71 82.79 22.60ZM115.94 17.88L115.94 23.11L103.30 23.11L103.30 17.88L115.94 17.88ZM128.32 1.80L128.32 29.09L142.63 29.09L142.63 34.50L121.58 34.50L121.58 1.80L128.32 1.80ZM152.91 10.20L152.91 34.50L146.40 34.50L146.40 10.20L152.91 10.20ZM146.02 3.91L146.02 3.91Q146.02 2.45 147.00 1.50Q147.97 0.56 149.66 0.56L149.66 0.56Q151.32 0.56 152.31 1.50Q153.30 2.45 153.30 3.91L153.30 3.91Q153.30 5.39 152.30 6.33Q151.30 7.28 149.66 7.28Q148.02 7.28 147.02 6.33Q146.02 5.39 146.02 3.91ZM171.42 27.78L171.42 27.78Q171.42 26.59 170.24 25.91Q169.06 25.22 166.46 24.68L166.46 24.68Q157.79 22.87 157.79 17.32L157.79 17.32Q157.79 14.08 160.47 11.92Q163.16 9.75 167.49 9.75L167.49 9.75Q172.12 9.75 174.89 11.93Q177.67 14.11 177.67 17.59L177.67 17.59L171.17 17.59Q171.17 16.19 170.28 15.28Q169.38 14.38 167.47 14.38L167.47 14.38Q165.83 14.38 164.93 15.12Q164.03 15.86 164.03 17.00L164.03 17.00Q164.03 18.08 165.05 18.74Q166.08 19.41 168.50 19.89Q170.93 20.37 172.59 20.98L172.59 20.98Q177.73 22.87 177.73 27.51L177.73 27.51Q177.73 30.84 174.88 32.89Q172.03 34.95 167.51 34.95L167.51 34.95Q164.46 34.95 162.09 33.86Q159.72 32.77 158.37 30.87Q157.02 28.97 157.02 26.77L157.02 26.77L163.18 26.77Q163.27 28.50 164.46 29.42Q165.65 30.34 167.65 30.34L167.65 30.34Q169.51 30.34 170.47 29.64Q171.42 28.93 171.42 27.78ZM183.19 4.22L189.68 4.22L189.68 10.20L193.84 10.20L193.84 14.96L189.68 14.96L189.68 27.09Q189.68 28.44 190.20 29.02Q190.72 29.60 192.18 29.60L192.18 29.60Q193.25 29.60 194.08 29.45L194.08 29.45L194.08 34.37Q192.18 34.95 190.15 34.95L190.15 34.95Q183.33 34.95 183.19 28.05L183.19 28.05L183.19 14.96L179.64 14.96L179.64 10.20L183.19 10.20L183.19 4.22Z"></path></g></svg><svg id="slogan" viewBox="0 0 203.2421875 19.47265625" width="203.2421875" height="19.47265625" x="70" y="42.94999694824219" data-v-04588dbe="" style="fill: rgb(0, 0, 0);"><rect x="0" y="0" width="100%" height="100%" fill="none" data-v-04588dbe=""></rect><g data-v-04588dbe=""><path xmlns="http://www.w3.org/2000/svg" d="M7.97 11.47L7.97 11.47Q7.97 10.64 7.38 10.20Q6.80 9.76 5.27 9.26Q3.75 8.77 2.86 8.29L2.86 8.29Q0.44 6.98 0.44 4.77L0.44 4.77Q0.44 3.61 1.09 2.71Q1.74 1.81 2.95 1.30Q4.17 0.79 5.68 0.79L5.68 0.79Q7.21 0.79 8.40 1.34Q9.59 1.89 10.25 2.90Q10.91 3.91 10.91 5.19L10.91 5.19L7.98 5.19Q7.98 4.21 7.36 3.67Q6.75 3.13 5.63 3.13L5.63 3.13Q4.56 3.13 3.96 3.58Q3.37 4.03 3.37 4.78L3.37 4.78Q3.37 5.47 4.07 5.94Q4.77 6.41 6.12 6.82L6.12 6.82Q8.62 7.57 9.77 8.68Q10.91 9.79 10.91 11.46L10.91 11.46Q10.91 13.30 9.51 14.35Q8.12 15.40 5.75 15.40L5.75 15.40Q4.11 15.40 2.76 14.80Q1.42 14.20 0.71 13.15Q0 12.11 0 10.73L0 10.73L2.94 10.73Q2.94 13.09 5.75 13.09L5.75 13.09Q6.80 13.09 7.38 12.66Q7.97 12.24 7.97 11.47ZM22.22 9.87L22.22 10.02Q22.22 12.46 21.11 13.93Q20 15.40 18.12 15.40L18.12 15.40Q16.51 15.40 15.53 14.29L15.53 14.29L15.53 19.27L12.71 19.27L12.71 4.64L15.32 4.64L15.42 5.67Q16.45 4.44 18.10 4.44L18.10 4.44Q20.05 4.44 21.13 5.89Q22.22 7.33 22.22 9.87L22.22 9.87ZM19.39 9.81L19.39 9.81Q19.39 8.34 18.87 7.54Q18.35 6.74 17.35 6.74L17.35 6.74Q16.03 6.74 15.53 7.75L15.53 7.75L15.53 12.08Q16.04 13.13 17.37 13.13L17.37 13.13Q19.39 13.13 19.39 9.81ZM28.83 15.40L28.83 15.40Q26.50 15.40 25.04 13.97Q23.58 12.55 23.58 10.18L23.58 10.18L23.58 9.90Q23.58 8.31 24.20 7.06Q24.81 5.80 25.94 5.12Q27.07 4.44 28.52 4.44L28.52 4.44Q30.68 4.44 31.93 5.81Q33.17 7.18 33.17 9.69L33.17 9.69L33.17 10.84L26.45 10.84Q26.58 11.88 27.27 12.50Q27.96 13.13 29.01 13.13L29.01 13.13Q30.64 13.13 31.56 11.94L31.56 11.94L32.95 13.50Q32.31 14.39 31.23 14.90Q30.15 15.40 28.83 15.40ZM28.51 6.73L28.51 6.73Q27.67 6.73 27.14 7.29Q26.62 7.86 26.47 8.92L26.47 8.92L30.40 8.92L30.40 8.69Q30.38 7.75 29.89 7.24Q29.40 6.73 28.51 6.73ZM39.17 13.13L39.17 13.13Q39.95 13.13 40.44 12.70Q40.93 12.27 40.95 11.55L40.95 11.55L43.59 11.55Q43.58 12.63 43.01 13.52Q42.43 14.41 41.43 14.91Q40.43 15.40 39.22 15.40L39.22 15.40Q36.95 15.40 35.64 13.96Q34.34 12.52 34.34 9.98L34.34 9.98L34.34 9.79Q34.34 7.35 35.63 5.90Q36.93 4.44 39.20 4.44L39.20 4.44Q41.18 4.44 42.38 5.57Q43.57 6.70 43.59 8.57L43.59 8.57L40.95 8.57Q40.93 7.75 40.44 7.24Q39.95 6.73 39.15 6.73L39.15 6.73Q38.16 6.73 37.66 7.45Q37.16 8.16 37.16 9.78L37.16 9.78L37.16 10.07Q37.16 11.70 37.66 12.41Q38.15 13.13 39.17 13.13ZM48.18 4.64L48.18 15.21L45.35 15.21L45.35 4.64L48.18 4.64ZM45.19 1.90L45.19 1.90Q45.19 1.27 45.61 0.86Q46.04 0.45 46.77 0.45L46.77 0.45Q47.49 0.45 47.92 0.86Q48.35 1.27 48.35 1.90L48.35 1.90Q48.35 2.55 47.92 2.96Q47.48 3.37 46.77 3.37Q46.05 3.37 45.62 2.96Q45.19 2.55 45.19 1.90ZM59.48 15.21L56.63 15.21Q56.44 14.82 56.35 14.26L56.35 14.26Q55.32 15.40 53.68 15.40L53.68 15.40Q52.13 15.40 51.11 14.50Q50.09 13.60 50.09 12.24L50.09 12.24Q50.09 10.56 51.33 9.66Q52.58 8.76 54.93 8.75L54.93 8.75L56.23 8.75L56.23 8.14Q56.23 7.41 55.85 6.97Q55.48 6.53 54.67 6.53L54.67 6.53Q53.96 6.53 53.55 6.88Q53.14 7.22 53.14 7.81L53.14 7.81L50.32 7.81Q50.32 6.89 50.89 6.11Q51.46 5.33 52.49 4.89Q53.53 4.44 54.81 4.44L54.81 4.44Q56.77 4.44 57.92 5.42Q59.06 6.41 59.06 8.18L59.06 8.18L59.06 12.76Q59.07 14.27 59.48 15.04L59.48 15.04L59.48 15.21ZM54.30 13.24L54.30 13.24Q54.92 13.24 55.45 12.96Q55.98 12.69 56.23 12.22L56.23 12.22L56.23 10.40L55.18 10.40Q53.06 10.40 52.92 11.87L52.92 11.87L52.91 12.03Q52.91 12.56 53.28 12.90Q53.65 13.24 54.30 13.24ZM64.21 0.21L64.21 15.21L61.38 15.21L61.38 0.21L64.21 0.21ZM75.12 15.21L72.29 15.21L72.29 6.71L70.71 6.71L70.71 4.64L72.29 4.64L72.29 3.74Q72.29 1.96 73.31 0.98Q74.33 0 76.16 0L76.16 0Q76.75 0 77.60 0.20L77.60 0.20L77.57 2.38Q77.22 2.29 76.71 2.29L76.71 2.29Q75.12 2.29 75.12 3.79L75.12 3.79L75.12 4.64L77.22 4.64L77.22 6.71L75.12 6.71L75.12 15.21ZM78.24 9.95L78.24 9.82Q78.24 8.25 78.85 7.02Q79.45 5.79 80.59 5.12Q81.73 4.44 83.23 4.44L83.23 4.44Q85.37 4.44 86.72 5.75Q88.08 7.06 88.23 9.31L88.23 9.31L88.25 10.03Q88.25 12.46 86.89 13.93Q85.54 15.40 83.25 15.40Q80.97 15.40 79.60 13.94Q78.24 12.47 78.24 9.95L78.24 9.95ZM81.06 10.03L81.06 10.03Q81.06 11.53 81.63 12.33Q82.20 13.13 83.25 13.13L83.25 13.13Q84.28 13.13 84.85 12.34Q85.43 11.55 85.43 9.82L85.43 9.82Q85.43 8.35 84.85 7.54Q84.28 6.73 83.23 6.73L83.23 6.73Q82.20 6.73 81.63 7.53Q81.06 8.34 81.06 10.03ZM95.97 4.57L95.93 7.29Q95.35 7.21 94.91 7.21L94.91 7.21Q93.31 7.21 92.81 8.29L92.81 8.29L92.81 15.21L89.99 15.21L89.99 4.64L92.66 4.64L92.73 5.90Q93.58 4.44 95.09 4.44L95.09 4.44Q95.56 4.44 95.97 4.57L95.97 4.57ZM107.95 10.20L105.38 10.20L105.38 15.21L102.45 15.21L102.45 0.99L108.00 0.99Q109.60 0.99 110.82 1.57Q112.03 2.16 112.69 3.24Q113.34 4.32 113.34 5.69L113.34 5.69Q113.34 7.78 111.91 8.99Q110.48 10.20 107.95 10.20L107.95 10.20ZM105.38 3.36L105.38 7.82L108.00 7.82Q109.16 7.82 109.77 7.28Q110.38 6.73 110.38 5.71L110.38 5.71Q110.38 4.67 109.77 4.02Q109.15 3.38 108.07 3.36L108.07 3.36L105.38 3.36ZM119.90 15.40L119.90 15.40Q117.58 15.40 116.12 13.97Q114.66 12.55 114.66 10.18L114.66 10.18L114.66 9.90Q114.66 8.31 115.27 7.06Q115.89 5.80 117.02 5.12Q118.14 4.44 119.59 4.44L119.59 4.44Q121.76 4.44 123.00 5.81Q124.25 7.18 124.25 9.69L124.25 9.69L124.25 10.84L117.52 10.84Q117.66 11.88 118.34 12.50Q119.03 13.13 120.09 13.13L120.09 13.13Q121.72 13.13 122.64 11.94L122.64 11.94L124.02 13.50Q123.39 14.39 122.30 14.90Q121.22 15.40 119.90 15.40ZM119.58 6.73L119.58 6.73Q118.74 6.73 118.22 7.29Q117.70 7.86 117.55 8.92L117.55 8.92L121.47 8.92L121.47 8.69Q121.46 7.75 120.97 7.24Q120.48 6.73 119.58 6.73ZM126.41 2.04L129.23 2.04L129.23 4.64L131.04 4.64L131.04 6.71L129.23 6.71L129.23 11.98Q129.23 12.57 129.45 12.82Q129.68 13.08 130.31 13.08L130.31 13.08Q130.78 13.08 131.14 13.01L131.14 13.01L131.14 15.15Q130.31 15.40 129.43 15.40L129.43 15.40Q126.46 15.40 126.41 12.40L126.41 12.40L126.41 6.71L124.86 6.71L124.86 4.64L126.41 4.64L126.41 2.04ZM138.10 7.98L138.10 10.25L132.60 10.25L132.60 7.98L138.10 7.98ZM146.04 10.20L143.48 10.20L143.48 15.21L140.55 15.21L140.55 0.99L146.09 0.99Q147.70 0.99 148.91 1.57Q150.13 2.16 150.78 3.24Q151.44 4.32 151.44 5.69L151.44 5.69Q151.44 7.78 150.00 8.99Q148.57 10.20 146.04 10.20L146.04 10.20ZM143.48 3.36L143.48 7.82L146.09 7.82Q147.26 7.82 147.87 7.28Q148.48 6.73 148.48 5.71L148.48 5.71Q148.48 4.67 147.86 4.02Q147.25 3.38 146.16 3.36L146.16 3.36L143.48 3.36ZM159.24 4.57L159.20 7.29Q158.62 7.21 158.18 7.21L158.18 7.21Q156.58 7.21 156.08 8.29L156.08 8.29L156.08 15.21L153.26 15.21L153.26 4.64L155.93 4.64L156.01 5.90Q156.86 4.44 158.36 4.44L158.36 4.44Q158.83 4.44 159.24 4.57L159.24 4.57ZM159.77 9.95L159.77 9.82Q159.77 8.25 160.37 7.02Q160.98 5.79 162.11 5.12Q163.25 4.44 164.76 4.44L164.76 4.44Q166.89 4.44 168.25 5.75Q169.60 7.06 169.76 9.31L169.76 9.31L169.78 10.03Q169.78 12.46 168.42 13.93Q167.06 15.40 164.78 15.40Q162.49 15.40 161.13 13.94Q159.77 12.47 159.77 9.95L159.77 9.95ZM162.59 10.03L162.59 10.03Q162.59 11.53 163.15 12.33Q163.72 13.13 164.78 13.13L164.78 13.13Q165.80 13.13 166.38 12.34Q166.95 11.55 166.95 9.82L166.95 9.82Q166.95 8.35 166.38 7.54Q165.80 6.73 164.76 6.73L164.76 6.73Q163.72 6.73 163.15 7.53Q162.59 8.34 162.59 10.03ZM171.67 4.64L174.50 4.64L174.50 15.78Q174.50 17.53 173.57 18.50Q172.65 19.47 170.90 19.47L170.90 19.47Q170.17 19.47 169.50 19.31L169.50 19.31L169.50 17.07Q170.01 17.16 170.39 17.16L170.39 17.16Q171.67 17.16 171.67 15.80L171.67 15.80L171.67 4.64ZM171.45 1.90L171.45 1.90Q171.45 1.27 171.87 0.86Q172.29 0.45 173.03 0.45Q173.76 0.45 174.18 0.86Q174.61 1.27 174.61 1.90L174.61 1.90Q174.61 2.55 174.17 2.96Q173.74 3.37 173.03 3.37Q172.31 3.37 171.88 2.96Q171.45 2.55 171.45 1.90ZM181.57 15.40L181.57 15.40Q179.25 15.40 177.79 13.97Q176.33 12.55 176.33 10.18L176.33 10.18L176.33 9.90Q176.33 8.31 176.94 7.06Q177.56 5.80 178.69 5.12Q179.81 4.44 181.26 4.44L181.26 4.44Q183.43 4.44 184.67 5.81Q185.92 7.18 185.92 9.69L185.92 9.69L185.92 10.84L179.19 10.84Q179.33 11.88 180.01 12.50Q180.70 13.13 181.76 13.13L181.76 13.13Q183.39 13.13 184.31 11.94L184.31 11.94L185.69 13.50Q185.06 14.39 183.97 14.90Q182.89 15.40 181.57 15.40ZM181.25 6.73L181.25 6.73Q180.41 6.73 179.89 7.29Q179.37 7.86 179.22 8.92L179.22 8.92L183.14 8.92L183.14 8.69Q183.13 7.75 182.64 7.24Q182.15 6.73 181.25 6.73ZM191.91 13.13L191.91 13.13Q192.70 13.13 193.18 12.70Q193.67 12.27 193.69 11.55L193.69 11.55L196.34 11.55Q196.33 12.63 195.75 13.52Q195.18 14.41 194.17 14.91Q193.17 15.40 191.96 15.40L191.96 15.40Q189.70 15.40 188.39 13.96Q187.08 12.52 187.08 9.98L187.08 9.98L187.08 9.79Q187.08 7.35 188.38 5.90Q189.68 4.44 191.94 4.44L191.94 4.44Q193.93 4.44 195.12 5.57Q196.32 6.70 196.34 8.57L196.34 8.57L193.69 8.57Q193.67 7.75 193.18 7.24Q192.70 6.73 191.89 6.73L191.89 6.73Q190.91 6.73 190.41 7.45Q189.90 8.16 189.90 9.78L189.90 9.78L189.90 10.07Q189.90 11.70 190.40 12.41Q190.90 13.13 191.91 13.13ZM198.51 2.04L201.33 2.04L201.33 4.64L203.13 4.64L203.13 6.71L201.33 6.71L201.33 11.98Q201.33 12.57 201.55 12.82Q201.78 13.08 202.41 13.08L202.41 13.08Q202.88 13.08 203.24 13.01L203.24 13.01L203.24 15.15Q202.41 15.40 201.53 15.40L201.53 15.40Q198.56 15.40 198.51 12.40L198.51 12.40L198.51 6.71L196.96 6.71L196.96 4.64L198.51 4.64L198.51 2.04Z"></path></g></svg></svg>